<svg id="레이어_1" data-name="레이어 1" xmlns="http://www.w3.org/2000/svg" viewBox="0 0 57.35 57.87"><defs><style>.cls-1{fill:#f8d06d;}</style></defs><circle id="타원_513" data-name="타원 513" class="cls-1" cx="28.86" cy="28.87" r="28.01"/><g id="그룹_4149" data-name="그룹 4149"><path id="패스_5212" data-name="패스 5212" d="M39,40.53H33.1v-2H37v-9h2Z"/><path id="패스_5213" data-name="패스 5213" d="M28.58,48.72A22.86,22.86,0,0,1,14.71,44l1.22-1.6a20.83,20.83,0,0,0,17,3.83l.41,2A23.51,23.51,0,0,1,28.58,48.72Z"/><circle id="타원_508" data-name="타원 508" cx="29.78" cy="30.94" r="1.64"/><circle id="타원_509" data-name="타원 509" cx="44.87" cy="30.94" r="1.64"/><path id="패스_5214" data-name="패스 5214" d="M23.73,22.67a5.2,5.2,0,0,1,4.11-5.52,4.74,4.74,0,0,1,3.81,1.2,5.61,5.61,0,0,1,1.9,4.28l-2,0a3.54,3.54,0,0,0-1.21-2.74,2.81,2.81,0,0,0-2.19-.74,3.22,3.22,0,0,0-2.4,3.44Z"/><path id="패스_5215" data-name="패스 5215" d="M40.27,22.67a5.2,5.2,0,0,1,4.11-5.52,4.74,4.74,0,0,1,3.81,1.2,5.61,5.61,0,0,1,1.9,4.28l-2,0a3.54,3.54,0,0,0-1.21-2.74,2.81,2.81,0,0,0-2.19-.74,3.22,3.22,0,0,0-2.4,3.44Z"/></g></svg>