<svg id="레이어_1" data-name="레이어 1" xmlns="http://www.w3.org/2000/svg" viewBox="0 0 57.35 57.87"><defs><style>.cls-1{fill:#d5e674;}</style></defs><circle id="타원_513" data-name="타원 513" class="cls-1" cx="28.69" cy="28.81" r="28.01"/><path id="패스_5226" data-name="패스 5226" d="M39.19,40.67H33.32v-2h3.86v-9h2Z"/><path id="패스_5227" data-name="패스 5227" d="M28.67,49.12A14.6,14.6,0,0,1,24,48.34c-5.88-2-10.17-7.94-10.92-15.07l2-.21c.68,6.35,4.44,11.6,9.58,13.38a13.61,13.61,0,0,0,8.42,0l.6,1.91A16.63,16.63,0,0,1,28.67,49.12Z"/><circle id="타원_515" data-name="타원 515" cx="45.09" cy="31.08" r="1.64"/><path id="패스_5228" data-name="패스 5228" d="M24,22.81a5.2,5.2,0,0,1,4.11-5.52,4.73,4.73,0,0,1,3.8,1.2,5.55,5.55,0,0,1,1.9,4.29l-2,0A3.55,3.55,0,0,0,30.54,20a2.77,2.77,0,0,0-2.18-.74A3.24,3.24,0,0,0,26,22.71Z"/><path id="패스_5229" data-name="패스 5229" d="M40.49,22.81a5.2,5.2,0,0,1,4.11-5.52,4.73,4.73,0,0,1,3.8,1.2,5.59,5.59,0,0,1,1.91,4.29l-2,0A3.55,3.55,0,0,0,47.08,20a2.77,2.77,0,0,0-2.18-.74,3.24,3.24,0,0,0-2.41,3.44Z"/><rect id="사각형_2236" data-name="사각형 2236" x="25.01" y="30.08" width="7.34" height="2.01"/></svg>