<svg id="레이어_1" data-name="레이어 1" xmlns="http://www.w3.org/2000/svg" viewBox="0 0 57.35 57.87"><defs><style>.cls-1{fill:#65cea4;}</style></defs><circle id="타원_513" data-name="타원 513" class="cls-1" cx="28.69" cy="28.87" r="28.01"/><g id="그룹_4157" data-name="그룹 4157"><g id="그룹_4156" data-name="그룹 4156"><path id="패스_5230" data-name="패스 5230" d="M39.15,40.58h-5.9v-2h3.88V29.5h2Z"/><path id="패스_5231" data-name="패스 5231" d="M23.85,21.17c-.14-2,1.69-3.82,4.18-4.07a6,6,0,0,1,4.48,1.41,3.43,3.43,0,0,1,1.19,2.6l-2,0A1.47,1.47,0,0,0,31.15,20a4,4,0,0,0-2.92-.89c-1.35.14-2.44,1-2.37,1.92Z"/><path id="패스_5232" data-name="패스 5232" d="M40.45,21.17c-.15-2,1.69-3.82,4.17-4.07a6,6,0,0,1,4.49,1.41,3.45,3.45,0,0,1,1.19,2.6l-2,0A1.48,1.48,0,0,0,47.75,20a4,4,0,0,0-2.92-.89c-1.35.14-2.43,1-2.37,1.92Z"/><path id="패스_5233" data-name="패스 5233" d="M26.84,51.06A9.32,9.32,0,0,1,25.55,51a10.43,10.43,0,0,1-6.87-4.13,8,8,0,0,1-1.55-6.16l.19-1.1,17.9,5.19-.36,1A8.37,8.37,0,0,1,26.84,51.06ZM19,42.17a6.35,6.35,0,0,0,1.28,3.48A8.36,8.36,0,0,0,25.82,49a6.69,6.69,0,0,0,6.68-2.9Z"/><rect id="사각형_2237" data-name="사각형 2237" x="26.16" y="30.49" width="8.13" height="2.01"/><rect id="사각형_2238" data-name="사각형 2238" x="29.44" y="25.84" width="2.01" height="7.97" transform="translate(-9.48 44.74) rotate(-64.9)"/><rect id="사각형_2239" data-name="사각형 2239" x="41.91" y="30.49" width="7.37" height="2.01"/><rect id="사각형_2240" data-name="사각형 2240" x="41.7" y="28.81" width="7.37" height="2.02" transform="translate(-8.63 24.22) rotate(-27.38)"/></g></g></svg>