<svg id="레이어_1" data-name="레이어 1" xmlns="http://www.w3.org/2000/svg" viewBox="0 0 57.35 57.87"><defs><style>.cls-1{fill:#9a77bf;}</style></defs><circle id="타원_513" data-name="타원 513" class="cls-1" cx="28.7" cy="28.76" r="28.01"/><g id="그룹_4177" data-name="그룹 4177"><path id="패스_5257" data-name="패스 5257" d="M38.89,47.34h-6V45.28h4V36h2.06Z"/><path id="패스_5258" data-name="패스 5258" d="M28.78,52.46a5.64,5.64,0,0,1-2.7-1.33c-.66-.46-1.41-1-2.32-1.51a17.89,17.89,0,0,0-6.33-2.24A2.61,2.61,0,0,1,14.93,45a2.68,2.68,0,0,1,1.31-2.47l.18-.11.21,0c2.05-.29,9-.91,12.15,3.47A7.91,7.91,0,0,1,30.33,51a1.75,1.75,0,0,1-.7,1.23h0A1.41,1.41,0,0,1,28.78,52.46Zm-11.6-8a.52.52,0,0,0-.19.42.56.56,0,0,0,.57.46h.13a20.07,20.07,0,0,1,7.12,2.51c1,.58,1.79,1.14,2.44,1.59.35.24.74.52,1.06.71a6.84,6.84,0,0,0-1.2-3c-2.38-3.3-7.92-2.94-9.93-2.68Z"/><path id="패스_5259" data-name="패스 5259" d="M48.7,26.23a6.32,6.32,0,0,0-5.58-4.42l.14-2.06a8.46,8.46,0,0,1,4.43,1.65,8.58,8.58,0,0,1,3,4.2Z"/><path id="패스_5260" data-name="패스 5260" d="M26.55,26l-2-.37a7.28,7.28,0,0,1,7.56-6L32,21.69A5.36,5.36,0,0,0,28.28,23,5.24,5.24,0,0,0,26.55,26Z"/><path id="패스_5261" data-name="패스 5261" d="M46,37.14a6.16,6.16,0,0,1-4.06-1.48,3.33,3.33,0,0,1-1.16-2.54l2.06,0a1.28,1.28,0,0,0,.5,1,4.13,4.13,0,0,0,3,.92c1.35-.13,2.48-1,2.42-1.84l2.05-.16c.16,2-1.72,3.8-4.27,4A5.63,5.63,0,0,1,46,37.14Z"/><path id="패스_5262" data-name="패스 5262" d="M29,37.14a6.11,6.11,0,0,1-4.06-1.48,3.34,3.34,0,0,1-1.17-2.54l2.07,0a1.29,1.29,0,0,0,.5,1,4.16,4.16,0,0,0,3,.91c1.35-.13,2.48-1,2.42-1.84l2-.15c.15,2-1.72,3.8-4.27,4Z"/></g></svg>