<svg id="레이어_1" data-name="레이어 1" xmlns="http://www.w3.org/2000/svg" viewBox="0 0 57.35 57.87"><defs><style>.cls-1{fill:#6b90e3;}</style></defs><circle id="타원_513" data-name="타원 513" class="cls-1" cx="28.68" cy="28.87" r="28.01"/><g id="그룹_4173" data-name="그룹 4173"><path id="패스_5246" data-name="패스 5246" d="M36.9,45.26h-4v2.06h6V36H36.9Z"/><path id="패스_5247" data-name="패스 5247" d="M29.51,35.79a1.68,1.68,0,1,0,1.68,1.68h0A1.68,1.68,0,0,0,29.51,35.79Z"/><path id="패스_5248" data-name="패스 5248" d="M45,35.79a1.68,1.68,0,1,0,1.68,1.68h0A1.68,1.68,0,0,0,45,35.79Z"/><path id="패스_5249" data-name="패스 5249" d="M33,23.42l-1.95.68a3.67,3.67,0,0,1-5.12,4.53L25,30.49a5.87,5.87,0,0,0,2.57.59A5.72,5.72,0,0,0,33,23.42Z"/><rect id="사각형_2255" data-name="사각형 2255" x="45.33" y="22.7" width="2.06" height="8.28" transform="translate(-3.44 46.57) rotate(-51.68)"/><path id="패스_5250" data-name="패스 5250" d="M45.13,46.4a15.43,15.43,0,0,1,1.43-2.18c.54.71,1,1.45,1.52,2.21v0c.51-.48,1-1,1.49-1.49a29.56,29.56,0,0,0-2.21-3l-.76-.9-.79.87a16.77,16.77,0,0,0-2.5,3.52c-.88,1.62-1.45,2.69-1.27,4.09a4.9,4.9,0,0,0,.26,1c.63-.33,1.23-.68,1.83-1.05a2.07,2.07,0,0,1,0-.22C44,48.55,44.29,48,45.13,46.4Z"/><path id="패스_5251" data-name="패스 5251" d="M49.13,48.28a1.87,1.87,0,0,1,.18.74h0a3,3,0,0,1-2.37,2.81,2.33,2.33,0,0,1-1.72-.61c-.6.38-1.22.73-1.84,1.06a4.44,4.44,0,0,0,3.37,1.62h.37a5,5,0,0,0,4.25-4.84,4.46,4.46,0,0,0-.68-2.27Q49.94,47.56,49.13,48.28Z"/><path id="패스_5252" data-name="패스 5252" d="M44.14,49.47c-.59.37-1.2.72-1.83,1a6,6,0,0,0,1.06,1.78c.63-.34,1.25-.69,1.85-1.07A3.42,3.42,0,0,1,44.14,49.47Z"/><path id="패스_5253" data-name="패스 5253" d="M49.58,45c-.48.52-1,1-1.49,1.49a15.09,15.09,0,0,1,1,1.83c.54-.47,1.06-1,1.56-1.5-.24-.43-.52-.89-.86-1.43C49.75,45.21,49.66,45.09,49.58,45Z"/><path id="패스_5254" data-name="패스 5254" d="M28.25,51.38c-.87,0-1.68-.82-2.65-1.8a24.84,24.84,0,0,0-3.05-2.75h0a18.65,18.65,0,0,0-5.91-2.92c-1.16-.37-2.26-.71-2.11-1.87a1.86,1.86,0,0,1,1.31-1.4A11.77,11.77,0,0,1,26.29,42a8.78,8.78,0,0,1,3.41,4.93c.31,1.32.63,3.64-.77,4.34A1.58,1.58,0,0,1,28.25,51.38Zm-4.47-6.2a27.84,27.84,0,0,1,3.29,3c.27.27.57.58.83.82a7.07,7.07,0,0,0-.21-1.59,6.64,6.64,0,0,0-2.61-3.74A9.91,9.91,0,0,0,18,42.17a19.94,19.94,0,0,1,5.83,3Z"/></g></svg>