<svg id="레이어_1" data-name="레이어 1" xmlns="http://www.w3.org/2000/svg" viewBox="0 0 57.35 57.87"><defs><style>.cls-1{fill:#fc9c04;}</style></defs><circle id="타원_513" data-name="타원 513" class="cls-1" cx="28.74" cy="28.87" r="28.01"/><g id="그룹_4217" data-name="그룹 4217"><g id="그룹_4160" data-name="그룹 4160"><path id="패스_5234" data-name="패스 5234" d="M39,40.57h-5.9v-2H37V29.48h2Z"/><rect id="사각형_2241" data-name="사각형 2241" x="23.34" y="23.37" width="11.51" height="2.02"/><rect id="사각형_2242" data-name="사각형 2242" x="40.46" y="23.37" width="11.24" height="2.02"/><g id="그룹_4158" data-name="그룹 4158"><rect id="사각형_2243" data-name="사각형 2243" x="28.73" y="27.23" width="2.02" height="7.41" transform="translate(-13.16 30.09) rotate(-45)"/><rect id="사각형_2244" data-name="사각형 2244" x="26.03" y="29.92" width="7.41" height="2.02" transform="translate(-13.16 30.09) rotate(-45)"/></g><g id="그룹_4159" data-name="그룹 4159"><rect id="사각형_2245" data-name="사각형 2245" x="43.9" y="27.23" width="2.02" height="7.41" transform="translate(-8.72 40.81) rotate(-45)"/><rect id="사각형_2246" data-name="사각형 2246" x="41.21" y="29.92" width="7.41" height="2.02" transform="translate(-8.72 40.81) rotate(-45)"/></g><path id="패스_5235" data-name="패스 5235" d="M29.35,48.61,25.8,46.39l-3.55,1.84-3.47-2.08-2.9,1.39L15,45.72l3.88-1.86,3.44,2.06,3.57-1.85,3.53,2.21,3.18-1.71,1,1.78Z"/></g></g></svg>