<svg id="레이어_1" data-name="레이어 1" xmlns="http://www.w3.org/2000/svg" viewBox="0 0 57.35 57.87"><defs><style>.cls-1{fill:#f688ae;}</style></defs><circle id="타원_513" data-name="타원 513" class="cls-1" cx="28.8" cy="28.87" r="28.01"/><path id="패스_5216" data-name="패스 5216" d="M39.06,40.62H33.19v-2h3.86v-9h2Z"/><circle id="타원_511" data-name="타원 511" cx="29.86" cy="31.02" r="1.64"/><circle id="타원_512" data-name="타원 512" cx="44.96" cy="31.02" r="1.64"/><path id="패스_5217" data-name="패스 5217" d="M23.82,22.76a5.2,5.2,0,0,1,4.11-5.53,4.77,4.77,0,0,1,3.8,1.21,5.57,5.57,0,0,1,1.91,4.28l-2,0A3.59,3.59,0,0,0,30.42,20a2.8,2.8,0,0,0-2.19-.73,3.21,3.21,0,0,0-2.4,3.44Z"/><path id="패스_5218" data-name="패스 5218" d="M40.36,22.76a5.2,5.2,0,0,1,4.11-5.53,4.76,4.76,0,0,1,3.8,1.21,5.57,5.57,0,0,1,1.91,4.28l-2,0A3.59,3.59,0,0,0,47,20a2.8,2.8,0,0,0-2.19-.73,3.21,3.21,0,0,0-2.4,3.44Z"/><path id="패스_5219" data-name="패스 5219" d="M28.57,51.48a9.32,9.32,0,0,1-1.29-.09,10.39,10.39,0,0,1-6.85-4.13,8,8,0,0,1-1.55-6.14l.2-1.1L36.93,45.2l-.36,1A8.35,8.35,0,0,1,28.57,51.48Zm-7.78-8.87a6.24,6.24,0,0,0,1.27,3.47,8.31,8.31,0,0,0,5.49,3.32,6.7,6.7,0,0,0,6.67-2.89Z"/></svg>