<svg id="레이어_1" data-name="레이어 1" xmlns="http://www.w3.org/2000/svg" viewBox="0 0 57.35 57.87"><defs><style>.cls-1{fill:#fac1ef;}</style></defs><g id="그룹_4153" data-name="그룹 4153"><circle id="타원_513" data-name="타원 513" class="cls-1" cx="28.58" cy="28.87" r="28.01"/><g id="그룹_4152" data-name="그룹 4152"><path id="패스_5220" data-name="패스 5220" d="M39.12,40.6H33.24v-2h3.87v-9h2Z"/><path id="패스_5221" data-name="패스 5221" d="M29.64,50.12a21.33,21.33,0,0,1-8-1.57A22.31,22.31,0,0,1,9.42,36.08l1.88-.72A19.75,19.75,0,0,0,36.75,46.88c.38-.15.75-.3,1.12-.47l.82,1.84A22.92,22.92,0,0,1,29.64,50.12Z"/><path id="패스_5222" data-name="패스 5222" d="M23.87,22.74A5.2,5.2,0,0,1,28,17.22a4.74,4.74,0,0,1,3.81,1.2,5.61,5.61,0,0,1,1.9,4.29l-2,0a3.54,3.54,0,0,0-1.21-2.74,2.81,2.81,0,0,0-2.19-.74,3.23,3.23,0,0,0-2.4,3.45Z"/><path id="패스_5223" data-name="패스 5223" d="M40.41,22.74a5.2,5.2,0,0,1,4.11-5.52,4.74,4.74,0,0,1,3.81,1.2,5.61,5.61,0,0,1,1.9,4.29l-2,0A3.54,3.54,0,0,0,47,19.94a2.81,2.81,0,0,0-2.19-.74,3.23,3.23,0,0,0-2.4,3.45Z"/></g><path id="패스_5224" data-name="패스 5224" d="M29.34,35.46l-.69-.62A19.77,19.77,0,0,1,25,30.73a2.37,2.37,0,0,1-.31-1.25,2.87,2.87,0,0,1,2.83-2.64,2.92,2.92,0,0,1,1.73.57A2.84,2.84,0,0,1,31,26.84h0a2.87,2.87,0,0,1,2.82,2.64h0a2.28,2.28,0,0,1-.19,1A17.69,17.69,0,0,1,30,34.82Zm-1.81-6.62a.9.9,0,0,0-.82.73.33.33,0,0,0,.06.19,14.9,14.9,0,0,0,2.54,2.95,13.14,13.14,0,0,0,2.45-3,.27.27,0,0,0,0-.12.91.91,0,0,0-.82-.74h0a1.39,1.39,0,0,0-.93.57c-.23.24-.5.55-.79.91a6.21,6.21,0,0,0-.83-.94c-.4-.36-.61-.54-.89-.53Z"/><path id="패스_5225" data-name="패스 5225" d="M45.42,35.46l-.69-.62a20.11,20.11,0,0,1-3.65-4.11,2.46,2.46,0,0,1-.3-1.25,2.86,2.86,0,0,1,2.83-2.64,2.92,2.92,0,0,1,1.73.57,2.84,2.84,0,0,1,1.71-.57h0a2.87,2.87,0,0,1,2.82,2.64h0a2.23,2.23,0,0,1-.19,1,17.74,17.74,0,0,1-3.59,4.32Zm-1.81-6.62a.89.89,0,0,0-.82.73.36.36,0,0,0,.06.2,14.79,14.79,0,0,0,2.54,2.94,13.41,13.41,0,0,0,2.45-3,.5.5,0,0,0,0-.12.9.9,0,0,0-.81-.74h0c-.37,0-.64.34-.8.54l-.85,1a14.19,14.19,0,0,0-1-1c-.45-.4-.6-.48-.78-.48Z"/></g></svg>